<svg xmlns="http://www.w3.org/2000/svg" viewBox="0 0 1280 353.83"><defs><style>.cls-1{fill:#37517e;}</style></defs><title>b4_3</title><g id="Layer_2" data-name="Layer 2"><g id="Layer_1-2" data-name="Layer 1"><path class="cls-1" d="M1280,96.59c-18.13,2.63-28.59,14.57-36.92,28.81-2.31,3.95-4.24,7.69-9.61,8.11-2.32,17.09-1.82,33.62,5.6,49.7a72.56,72.56,0,0,1,5.72,20.65c1,7.54-4.68,12.89-12.74,13.43-11.41.75-21.07-5.57-17.54-20a53.15,53.15,0,0,1,4.38-11.73c6.19-11.94,7-24.65,6.43-37.63,0-.8-.1-1.6-.16-2.4-.31-4.39,1.16-10.54-1.28-12.84-6.14-5.79-13.11-11.69-22.71-11.8-21.86-.26-41.26,4.52-54,23.86a133.41,133.41,0,0,1-13.78,17.68,25.5,25.5,0,0,1-10.44,6.17c-2.77.91-3.48,2.21-4,4.5-4.11,16.59-3.57,33.52-3.93,50.38-.2,9.48-.17,19-.24,28.45-.1,15,5,28.58,11.53,42,5.06,10.36,9.8,21.06,12.88,32.08,4.72,16.88-8.4,26-20.72,27.54a41.11,41.11,0,0,1-18.06-1.64c-13.17-4.61-18.37-15.57-14.83-30.36a103.27,103.27,0,0,1,7.77-22.19,113.43,113.43,0,0,0,11.8-56.09c-.68-18.15-1.07-36.32-2.31-54.44-.5-7.29-2.88-14.48-4.53-21.68-.26-1.15-.91-2.69-1.85-3.15-8.29-4-16.37-8.79-25.12-11.51-12.46-3.88-19.36.84-21.55,13.39-1.24,7.12-1.71,14.35-2.82,21.49-1,6.27-3.93,11.15-11,12.56a16.82,16.82,0,0,1-17.74-7.2c-2.43-3.78-4.13-8-6-12.12-1.35-2.93-2.29-6-3.67-9-5.13-10.8-12.1-14.34-24.12-11.95-6.18,1.23-12.29,2.86-18.33,4.62a5.26,5.26,0,0,0-3.11,3.15c-2.3,8.66-4.9,17.31-6.23,26.13-1.09,7.27-.25,14.78-.82,22.15-1.06,13.94,2.51,26.64,9.27,38.88a38.92,38.92,0,0,1,4.6,15c.78,8.7-4.76,14.06-13.86,14.33-11,.32-19.84-6-16.43-20.17a53.32,53.32,0,0,1,3.91-10.88c4.42-9,7.25-18.33,6.94-28.33-.48-15.71,1-31.57-3.33-47-.52-1.86-1.24-3.66-1.76-5.52-.82-2.92-1.87-5.45-5.83-5.18a5,5,0,0,1-2.68-1.18c-12-8.26-25.63-11.09-40.07-11.26-11.53-.14-20.39-4.75-24.92-15.25-3.63-8.41-6.55-17.11-9.69-25.72-2.78-7.59-5.4-15.23-11.62-21-10.67-10-30.87-8.83-39.5,2.85-3.8,5.15-6.38,11.23-8.91,17.13-4.58,10.74-9.08,21.45-18.74,29.1a52.36,52.36,0,0,1-27.2,11.05c-4.76.53-6.93,2.29-8.58,6.75-5.81,15.78-5.7,32.16-6.65,48.52a72.37,72.37,0,0,0,12.31,45.81,60.13,60.13,0,0,1,7.16,15.78c3,9.83-.36,16.22-10.2,20A28.9,28.9,0,0,1,726,288.27c-8.06-4.1-10.91-10.68-8.45-20a53.75,53.75,0,0,1,5.21-13.45c8.39-14.33,11.23-29.62,10.5-45.93s0-32.4-5-48.26c-2.62-8.23-6.87-12.23-15.87-14.4-19-4.58-36.73-3.22-54.44,4.63a267.33,267.33,0,0,1-31.59,11.56c-5.42,1.62-11.51,1.2-17.29,1.68-3.8.32-7.61.61-11.75.94-.38,5.92-1.22,11.51-1,17.07.73,21.19.87,42.47,3.08,63.53,1.24,11.81,6.48,23.18,9.24,34.9,2.32,9.79,4.56,19.74,5.21,29.72.89,13.51-6.19,21.58-20.11,24.32-11.69,2.3-22.37-.12-30.32-9.25-6.43-7.39-5.92-16.71-4.58-25.27,2.06-13.12,6.47-25.9,8.5-39a384.78,384.78,0,0,0,4.37-45.05c.58-16.37-.29-32.8-.79-49.19a5.39,5.39,0,0,0-3.12-4A64.34,64.34,0,0,0,556,160.94a62.28,62.28,0,0,0-10.49,0c-16.61,1.41-29.66-5.32-41-16.31-5.28-5.13-10.47-10.41-16.21-15-12.69-10.19-26.48-13.56-42-5.59-5.07,2.61-7.37,6.75-9.24,11.44-4.64,11.63-4.68,23.85-5.34,36.07-.62,11.42,1.82,21.57,8.8,30.86a31.57,31.57,0,0,1,4.47,9.56c2.07,6.63.28,10-6.28,12.46a20,20,0,0,1-6.71,1.51c-13,0-22.79-6.47-14.33-20.29,9.62-15.72,9.73-32.07,7.27-48.94-.76-5.24-3.7-10.19-5.71-15.46a31.56,31.56,0,0,0-2.95,1.36c-9.59,6.16-20.11,7.48-31.45,6.86-8.22-.44-16.56.63-24.81,1.38-5.67.52-10.08,3.24-13.82,7.65-15.18,17.87-25.06,37.72-26.45,61.17-.52,8.88,2.67,16.63,5.92,24.59,7.77,19.09,15.56,38.18,22.54,57.53,2,5.55,1.81,12,1.51,18.05-.13,2.79-2.35,6.08-4.63,8.07-11.18,9.74-32.27,9.87-44.1.8-7.17-5.49-6.76-13.24-6.46-20.64.21-5,1.89-10.06,3.17-15,4.89-19,10.81-37.81,14.6-57,4.68-23.71-1.47-46.25-11.83-67.78-.55-1.15-2.38-1.93-3.78-2.47-4.62-1.75-9.61-2.79-13.94-5-14-7.24-28.91-9.09-44.42-9.12-10.81,0-21.64-.29-32.43-1-16.23-1.07-28.77-8.94-38.75-21-6.34-7.66-12.37-15.57-19-23C133.47,90,115.88,86.25,95.27,95c-5.33,2.25-10.74,4.37-15.84,7.05A10.44,10.44,0,0,0,75,107.23c-4,10.62-3.67,21.78-3.73,32.86a86.66,86.66,0,0,0,7.85,36.53A36,36,0,0,1,81.25,184c2.12,9.91-1.33,15.21-11.72,16.59a29,29,0,0,1-12.61-1.52c-6.31-2.13-9-7.87-7.46-14.93,1.06-5,2.78-9.89,4-14.87,5.29-21,6.55-41.61-5.33-61.24-1.51-2.51-3.11-3.45-6.1-3.88-6.55-1-12.94-2.84-19.46-4C15.1,98.78,7.54,97.76,0,96.59V0H1280Z"/></g></g></svg>